<mxfile host="65bd71144e">
    <diagram id="d1xydMPcQmYk_ruiJQB-" name="Página-1">
        <mxGraphModel dx="576" dy="461" grid="1" gridSize="10" guides="1" tooltips="1" connect="1" arrows="1" fold="1" page="1" pageScale="1" pageWidth="827" pageHeight="1169" math="0" shadow="0">
            <root>
                <mxCell id="0"/>
                <mxCell id="1" parent="0"/>
                <mxCell id="4" style="edgeStyle=none;html=1;" edge="1" parent="1" source="2">
                    <mxGeometry relative="1" as="geometry">
                        <mxPoint x="285" y="180" as="targetPoint"/>
                    </mxGeometry>
                </mxCell>
                <mxCell id="2" value="&lt;font style=&quot;font-size: 14px;&quot;&gt;INICIO&lt;/font&gt;" style="ellipse;whiteSpace=wrap;html=1;fillColor=#0050ef;fontColor=#ffffff;strokeColor=#001DBC;" vertex="1" parent="1">
                    <mxGeometry x="220" y="50" width="130" height="60" as="geometry"/>
                </mxCell>
                <mxCell id="10" value="" style="edgeStyle=none;html=1;" edge="1" parent="1" source="3" target="9">
                    <mxGeometry relative="1" as="geometry"/>
                </mxCell>
                <mxCell id="3" value="&lt;font style=&quot;font-size: 18px;&quot;&gt;r&lt;/font&gt;" style="shape=parallelogram;perimeter=parallelogramPerimeter;whiteSpace=wrap;html=1;fixedSize=1;fillColor=#1ba1e2;strokeColor=#006EAF;fontColor=#ffffff;" vertex="1" parent="1">
                    <mxGeometry x="230" y="170" width="120" height="60" as="geometry"/>
                </mxCell>
                <mxCell id="12" style="edgeStyle=none;html=1;" edge="1" parent="1" source="9">
                    <mxGeometry relative="1" as="geometry">
                        <mxPoint x="290" y="430" as="targetPoint"/>
                    </mxGeometry>
                </mxCell>
                <mxCell id="9" value="&lt;div style=&quot;float: left; margin-right: 16px; text-align: left;&quot; class=&quot;hHq9Z&quot;&gt;&lt;div style=&quot;&quot; data-ved=&quot;2ahUKEwjA_LHPsY6LAxUq38kDHd_4FdoQlcAGegQIDRAA&quot; data-hveid=&quot;CA0QAA&quot;&gt;&lt;div style=&quot;display: flex; align-items: center; height: 58px;&quot; class=&quot;KsRP6&quot;&gt;&lt;div style=&quot;padding-top: 10px; max-width: 576px;&quot; class=&quot;MDY31c Sb9BPb&quot;&gt;&lt;div style=&quot;align-items: center; display: flex; justify-content: space-between;&quot; class=&quot;QpPSMb&quot;&gt;&lt;div style=&quot;display: flex; min-width: 0px; gap: 8px;&quot; class=&quot;DoxwDb&quot;&gt;&lt;div style=&quot;word-break: break-word; line-height: 36px; overflow: hidden; text-overflow: ellipsis;&quot; role=&quot;heading&quot; data-attrid=&quot;title&quot; aria-level=&quot;2&quot; class=&quot;PZPZlf ssJ7i B5dxMb&quot;&gt;&lt;span style=&quot;background-color: rgb(153, 255, 204);&quot;&gt;&lt;font style=&quot;&quot; face=&quot;Arial, sans-serif&quot; color=&quot;#474747&quot;&gt;&lt;span style=&quot;font-size: 14px;&quot;&gt;p=2&lt;/span&gt;&lt;/font&gt;&lt;span style=&quot;color: rgb(31, 31, 31); font-family: &amp;quot;Google Sans&amp;quot;, Arial, sans-serif; font-size: 16px;&quot;&gt;πr&amp;nbsp; &amp;nbsp;a=&lt;/span&gt;&lt;span style=&quot;color: rgb(31, 31, 31); font-family: &amp;quot;Google Sans&amp;quot;, Arial, sans-serif; font-size: 16px;&quot;&gt;&amp;nbsp;&lt;/span&gt;&lt;span style=&quot;color: rgb(31, 31, 31); font-family: &amp;quot;Google Sans&amp;quot;, Arial, sans-serif; font-size: 16px;&quot;&gt;π&lt;/span&gt;&lt;span style=&quot;color: rgb(71, 71, 71); font-family: &amp;quot;Google Sans&amp;quot;, Arial, sans-serif; font-size: 16px;&quot;&gt;r²&lt;/span&gt;&lt;span style=&quot;color: rgb(31, 31, 31); font-family: &amp;quot;Google Sans&amp;quot;, Arial, sans-serif; font-size: 16px;&quot;&gt;&amp;nbsp;&lt;/span&gt;&lt;/span&gt;&lt;/div&gt;&lt;/div&gt;&lt;/div&gt;&lt;/div&gt;&lt;/div&gt;&lt;/div&gt;&lt;/div&gt;" style="whiteSpace=wrap;html=1;fillColor=#b1ddf0;strokeColor=#10739e;" vertex="1" parent="1">
                    <mxGeometry x="210" y="310" width="160" height="60" as="geometry"/>
                </mxCell>
                <mxCell id="16" style="edgeStyle=none;html=1;exitX=0.508;exitY=0.838;exitDx=0;exitDy=0;exitPerimeter=0;" edge="1" parent="1" source="14">
                    <mxGeometry relative="1" as="geometry">
                        <mxPoint x="300" y="570" as="targetPoint"/>
                    </mxGeometry>
                </mxCell>
                <mxCell id="14" value="&lt;font style=&quot;font-size: 18px;&quot;&gt;p,a&lt;/font&gt;" style="shape=document;whiteSpace=wrap;html=1;boundedLbl=1;fillColor=#647687;strokeColor=#314354;fontColor=#ffffff;" vertex="1" parent="1">
                    <mxGeometry x="240" y="420" width="120" height="80" as="geometry"/>
                </mxCell>
                <mxCell id="18" value="&lt;font size=&quot;3&quot;&gt;FIN&lt;br&gt;&lt;/font&gt;" style="ellipse;whiteSpace=wrap;html=1;fillColor=#0050ef;fontColor=#ffffff;strokeColor=#001DBC;" vertex="1" parent="1">
                    <mxGeometry x="235" y="570" width="130" height="60" as="geometry"/>
                </mxCell>
            </root>
        </mxGraphModel>
    </diagram>
</mxfile>